#!OML:ASF H:\MichaelJackson\Top Level 1\Subject 1\Session 1\male.ASF
:FULLY-SPECIFIED
:DEGREES
48
root 21.557 16.601 -12.3124 7.19541 17.2864 3.58092
lowerback -0.519067 -2.58267 -1.65583
upperback 1.13975 -3.4093 -0.914396
thorax 1.49919 -1.71588 -0.0738855
lowerneck -5.28809 -3.02512 0.988621
upperneck 3.3332 -4.22536 2.56412
head 1.98183 -2.02549 0.498754
rclavicle 4.24646e-014 1.70644e-014
rhumerus -56.9533 -13.1251 -73.8329
rradius 33.959
rwrist 16.4795
rhand -39.1041 -38.2227
rfingers 7.12502
rthumb -12.1041 -67.8526
lclavicle 4.24646e-014 1.70644e-014
lhumerus -11.829 -13.0565 74.1548
lradius 72.8645
lwrist 1.80466
lhand -34.6746 9.3033
lfingers 7.12502
lthumb -7.83076 39.1383
rfemur -36.2886 2.87406 9.46063
rtibia 25.3236
rfoot -1.58603 -9.82437
rtoes 20.1525
lfemur 3.60898 0.358059 -22.4725
ltibia 22.2882
lfoot -24.1858 7.13354
ltoes -4.73843
49
root 21.5465 16.6089 -12.1555 7.19549 17.0299 3.44257
lowerback -0.633158 -2.44991 -1.83424
upperback 1.14669 -3.22985 -0.709587
thorax 1.58995 -1.63016 0.232309
lowerneck -5.39348 -3.02817 0.998991
upperneck 3.32659 -4.22495 2.41288
head 1.99434 -2.0284 0.447864
rclavicle 9.81686e-014 -1.2424e-015
rhumerus -56.9746 -12.2157 -74.28
rradius 34.4117
rwrist 16.9485
rhand -38.0855 -34.9259
rfingers 7.12502
rthumb -11.1217 -64.6112
lclavicle 9.81686e-014 -1.2424e-015
lhumerus -11.6079 -14.8063 73.6464
lradius 71.0151
lwrist -7.26851
lhand -33.0538 8.91326
lfingers 7.12502
lthumb -6.26615 38.8006
rfemur -36.2078 2.52064 10.0969
rtibia 25.8797
rfoot -1.09023 -9.88008
rtoes 19.5735
lfemur 3.90216 0.217291 -22.2876
ltibia 22.6487
lfoot -23.5768 7.76839
ltoes -6.35451
50
root 21.5362 16.6207 -11.998 7.18888 16.7285 3.30696
lowerback -0.65347 -2.36381 -1.78732
upperback 1.12237 -3.11638 -0.661817
thorax 1.57439 -1.57308 0.257372
lowerneck -5.54161 -2.96287 1.09125
upperneck 3.38631 -4.14684 2.36667
head 2.0367 -1.98746 0.417622
rclavicle -4.7025e-015 -3.37934e-015
rhumerus -57.0447 -11.3927 -74.8819
rradius 34.9466
rwrist 17.1659
rhand -36.6857 -31.01
rfingers 7.12502
rthumb -9.77144 -60.7633
lclavicle -4.7025e-015 -3.37934e-015
lhumerus -11.6809 -16.3602 72.9468
lradius 69.7212
lwrist -14.6254
lhand -30.5264 6.87689
lfingers 7.12502
lthumb -3.82582 36.8223
rfemur -36.1379 2.02947 10.7885
rtibia 26.4207
rfoot -0.665079 -9.77206
rtoes 19.0278
lfemur 4.12494 0.146305 -22.1124
ltibia 23.1411
lfoot -22.8744 8.35217
ltoes -7.9675
51
root 21.5263 16.6352 -11.84 7.17182 16.3917 3.16302
lowerback -0.644572 -2.27739 -1.70811
upperback 1.10498 -3.00339 -0.621679
thorax 1.54746 -1.51579 0.257772
lowerneck -5.70767 -2.88053 1.19123
upperneck 3.44682 -4.04719 2.31958
head 2.08249 -1.93558 0.386328
rclavicle -1.27346e-014 -7.10655e-015
rhumerus -57.117 -10.6778 -75.3968
rradius 35.5735
rwrist 17.1233
rhand -34.8558 -26.82
rfingers 7.12502
rthumb -8.00559 -56.6484
lclavicle -1.27346e-014 -7.10655e-015
lhumerus -11.9534 -17.7224 72.3915
lradius 68.8884
lwrist -20.099
lhand -27.2857 3.57683
lfingers 7.12502
lthumb -0.69602 33.5554
rfemur -36.0544 1.37871 11.5543
rtibia 26.9332
rfoot -0.370375 -9.47181
rtoes 18.2952
lfemur 4.253 0.154048 -21.9314
ltibia 23.8104
lfoot -22.0848 8.89066
ltoes -9.62386
52
root 21.5167 16.6518 -11.6811 7.14202 16.0322 3.00539
lowerback -0.621263 -2.19228 -1.59904
upperback 1.09882 -2.89266 -0.580959
thorax 1.52268 -1.45937 0.242303
lowerneck -5.88332 -2.78679 1.29322
upperneck 3.51028 -3.93261 2.26215
head 2.13094 -1.87642 0.351897
rclavicle 1.37596e-014 1.31695e-014
rhumerus -57.1859 -10.0905 -75.8037
rradius 36.2733
rwrist 16.8775
rhand -32.5918 -22.696
rfingers 7.12502
rthumb -5.82009 -52.5961
lclavicle 1.37596e-014 1.31695e-014
lhumerus -12.4127 -18.879 72.0364
lradius 68.4049
lwrist -23.623
lhand -23.5385 -0.27392
lfingers 7.12502
lthumb 2.92304 29.6858
rfemur -35.9251 0.585142 12.3841
rtibia 27.4054
rfoot -0.278932 -9.00392
rtoes 17.2889
lfemur 4.26828 0.252667 -21.7318
ltibia 24.6933
lfoot -21.2128 9.36708
ltoes -11.2342
53
root 21.5078 16.6701 -11.5216 7.10686 15.6639 2.83368
lowerback -0.586427 -2.11475 -1.44964
upperback 1.09348 -2.79272 -0.540405
thorax 1.49073 -1.40788 0.204285
lowerneck -6.05281 -2.68059 1.3911
upperneck 3.58291 -3.80089 2.19279
head 2.18139 -1.80908 0.315167
rclavicle 2.57178e-015 -1.30204e-014
rhumerus -57.2576 -9.6194 -76.1129
rradius 37.0393
rwrist 16.3978
rhand -29.9158 -18.915
rfingers 7.12502
rthumb -3.23611 -48.8702
lclavicle 2.57178e-015 -1.30204e-014
lhumerus -13.0553 -19.7832 71.9107
lradius 68.1618
lwrist -25.2076
lhand -19.0661 -4.08651
lfingers 7.12502
lthumb 7.24137 25.7696
rfemur -35.7313 -0.32688 13.2537
rtibia 27.8174
rfoot -0.394949 -8.41438
rtoes 15.9118
lfemur 4.13739 0.454046 -21.5087
ltibia 25.8281
lfoot -20.2513 9.76066
ltoes -12.7592
54
root 21.4991 16.6903 -11.361 7.06627 15.2989 2.64332
lowerback -0.553671 -2.04513 -1.26956
upperback 1.09013 -2.70362 -0.490872
thorax 1.46152 -1.36158 0.157813
lowerneck -6.20262 -2.56815 1.4787
upperneck 3.66077 -3.65897 2.1045
head 2.23014 -1.7375 0.274961
rclavicle -1.14798e-014 -1.66482e-014
rhumerus -57.3298 -9.25252 -76.3339
rradius 37.8611
rwrist 15.641
rhand -26.923 -15.7143
rfingers 7.12502
rthumb -0.345713 -45.6938
lclavicle -1.14798e-014 -1.66482e-014
lhumerus -13.8544 -20.4049 72.0375
lradius 68.0968
lwrist -24.9045
lhand -13.7331 -7.1373
lfingers 7.12502
lthumb 12.3865 22.4757
rfemur -35.4581 -1.28688 14.1273
rtibia 28.1522
rfoot -0.695928 -7.82607
rtoes 14.2256
lfemur 3.83897 0.783924 -21.2447
ltibia 27.2403
lfoot -19.1927 10.0812
ltoes -14.2167
55
root 21.4906 16.7119 -11.1997 7.03709 14.9407 2.43205
lowerback -0.534646 -1.98175 -1.05438
upperback 1.07911 -2.6231 -0.431621
thorax 1.43149 -1.31926 0.101023
lowerneck -6.32342 -2.45311 1.55237
upperneck 3.74387 -3.51112 1.99996
head 2.27567 -1.66388 0.232697
rclavicle 2.77429e-014 8.54774e-015
rhumerus -57.4032 -8.98108 -76.4807
rradius 38.7157
rwrist 14.5839
rhand -23.7344 -13.1969
rfingers 7.12502
rthumb 2.73385 -43.1591
lclavicle 2.77429e-014 8.54774e-015
lhumerus -14.7811 -20.7044 72.4068
lradius 68.1457
lwrist -22.9218
lhand -7.2931 -8.84857
lfingers 7.12502
lthumb 18.5889 20.2832
rfemur -35.1234 -2.26458 14.9856
rtibia 28.3917
rfoot -1.11865 -7.30954
rtoes 12.0799
lfemur 3.33799 1.26099 -20.9336
ltibia 28.9466
lfoot -18.0156 10.2948
ltoes -15.4606
